<svg width="26" height="26" viewBox="0 0 26 26" fill="none" xmlns="http://www.w3.org/2000/svg">
<path opacity="0.4" d="M12.9999 0.499754C19.8936 0.499754 25.4999 6.10725 25.4999 12.9998C25.4999 19.8923 19.8936 25.4998 12.9999 25.4998C6.10738 25.4998 0.499878 19.8923 0.499878 12.9998C0.499878 6.10725 6.10738 0.499754 12.9999 0.499754Z" fill="#509FEF" fill-opacity="0.5"/>
<path d="M11.1969 7.72388C11.4356 7.72388 11.6756 7.81512 11.8581 7.99762L16.2169 12.3351C16.3931 12.5114 16.4919 12.7501 16.4919 13.0001C16.4919 13.2489 16.3931 13.4876 16.2169 13.6639L11.8581 18.0039C11.4919 18.3689 10.8994 18.3689 10.5331 18.0014C10.1681 17.6339 10.1694 17.0401 10.5356 16.6751L14.2269 13.0001L10.5356 9.32512C10.1694 8.96012 10.1681 8.36763 10.5331 8.00013C10.7156 7.81513 10.9569 7.72388 11.1969 7.72388Z" fill="#990D81"/>
</svg>
